<svg width="234" height="253" viewBox="0 0 234 253" fill="none" xmlns="http://www.w3.org/2000/svg">
<g clip-path="url(#clip0_1790_2)">
<path d="M100.293 214.076C100.252 214.199 100.172 214.306 100.066 214.382C99.9599 214.458 99.8322 214.498 99.7015 214.497H75.2402L95.0515 228.793C95.1506 228.867 95.2698 228.908 95.3933 228.913C95.5168 228.918 95.6389 228.886 95.7437 228.821C101.225 225.434 106.015 223.089 116.208 220.44C116.208 220.44 100.578 232.081 90.3345 245.096C90.1113 245.383 89.9395 245.705 89.8265 246.05L87.6941 252.563L107.477 238.289C107.583 238.211 107.711 238.169 107.843 238.169C107.975 238.169 108.103 238.211 108.209 238.289L127.998 252.563L120.439 229.464C120.398 229.341 120.397 229.208 120.438 229.084C120.478 228.96 120.557 228.853 120.663 228.777L140.452 214.497H115.99C115.86 214.498 115.733 214.457 115.628 214.381C115.523 214.306 115.444 214.199 115.404 214.076L107.846 190.977L100.293 214.076Z" fill="url(#paint0_linear_1790_2)"/>
<path d="M161.296 208.516C165.292 208.516 167.849 210.578 167.849 213.993C167.849 217.563 165.292 220.09 161.296 220.09H154.904V208.505L161.296 208.516ZM166.32 228.2C169.79 227.746 172.977 226.054 175.285 223.441C177.594 220.827 178.867 217.469 178.868 213.993C178.868 204.308 172.237 198.992 161.524 198.992H144.035V247.724H154.904V228.439L167.933 247.724H180.56L166.32 228.2ZM79.2371 198.992H46.8602V208.837H57.4664V247.729H68.575V208.837H79.1812L79.2371 198.992ZM26.4182 216.847C23.3033 215.417 22.1031 213.909 22.1031 211.931C22.1031 209.625 24.1016 207.723 27.0601 207.801C29.7787 207.878 31.7771 209.309 33.2955 212.723L42.6457 208.671C40.089 202.185 34.892 198.355 26.5019 198.355C17.6262 198.355 11.0783 204.148 11.0783 211.931C11.0783 217.247 13.6349 221.609 20.1884 224.863L26.742 228.117C30.4151 229.946 32.1734 231.293 32.1734 233.993C32.1734 236.848 29.7787 238.915 26.742 238.915C23.4652 238.915 20.5066 237.086 19.1501 232.962L9.23615 235.817C11.469 243.832 18.1063 248.516 26.742 248.516C36.0922 248.516 43.282 242.563 43.282 233.993C43.282 227.402 39.7708 222.962 32.6758 219.708L26.4182 216.847Z" fill="white"/>
<path d="M227.908 219.364H212.49V204.053H204.306V219.364H188.888V227.258H204.306V242.563H212.49V227.258H227.908V219.364Z" fill="white"/>
<path d="M106.182 83.9742L106.456 84.013C108.369 84.2047 110.246 84.6522 112.038 85.3434C113.367 85.8818 114.448 86.8913 115.069 88.1761C115.616 89.1594 115.949 90.2456 116.046 91.3647C116.144 92.4837 116.004 93.6105 115.636 94.6726C115.268 95.7346 114.679 96.7081 113.908 97.5302C113.138 98.3524 112.202 99.0049 111.162 99.4456C109.559 100.195 107.836 100.661 106.071 100.82C102.768 101.133 99.442 100.542 96.4526 99.113C94.7333 98.276 92.64 96.8458 91.5793 94.9943C91.1863 94.3184 90.9958 93.5451 91.0305 92.7653C91.0651 91.9856 91.3233 91.2319 91.7747 90.5929C93.2819 88.5419 96.514 88.0874 98.9479 88.1761C101.311 88.3169 103.648 88.7394 105.909 89.4344C106.4 89.6118 108.203 90.3102 108.516 90.6317C108.634 90.7342 108.722 90.867 108.769 91.0156C108.816 91.1643 108.821 91.323 108.784 91.4743C108.376 92.6994 105.384 93.3424 104.519 93.4699C102.208 93.8247 101.008 92.9544 98.3785 91.9233C97.6774 91.633 96.9421 91.4318 96.1902 91.3246C94.9956 91.2138 93.5499 91.5464 93.321 92.838C93.2093 93.5087 93.9964 94.1296 94.5993 94.3901C95.8404 94.9439 97.1853 95.231 98.5459 95.2327C102.649 95.2992 107.26 94.6285 110.615 92.267C110.866 92.1196 111.08 91.9161 111.239 91.6728C111.397 91.4294 111.497 91.1527 111.53 90.8646C111.53 89.6506 109.403 88.9078 109.403 88.9078C107.17 87.9709 102.967 87.5164 100.812 87.339C98.5794 87.145 95.0068 86.8567 94.1527 86.7292C93.2625 86.6339 92.3894 86.4194 91.557 86.0918C91.1467 85.9041 90.7806 85.6329 90.4825 85.2958C90.1844 84.9588 89.9609 84.5633 89.8265 84.135C89.6661 83.3389 89.6685 82.519 89.8334 81.7238C89.9983 80.9287 90.3225 80.1746 90.7867 79.5063C93.0195 76.3023 98.2836 75.0717 102.208 74.606C106.004 74.1348 112.144 74.1404 115.873 76.1083C116.431 76.4131 116.744 76.7014 116.627 77.3112C116.505 77.8421 116.238 78.3297 115.856 78.7206C115.474 79.1116 114.992 79.391 114.461 79.5285C113.017 79.8486 111.546 80.0342 110.068 80.0828C105.568 80.3323 100.137 80.1992 95.8497 81.3633C95.4501 81.4371 95.07 81.5918 94.7333 81.8179C94.0634 82.544 95.9781 82.7491 96.4079 82.8323C96.4979 82.8548 96.5893 82.8714 96.6815 82.8822L106.171 83.9908L106.182 83.9742ZM79.4157 64.0793C79.4157 64.0793 80.147 62.9706 80.761 62.1668C82.1487 60.3903 83.708 58.7528 85.4166 57.2776C85.8799 56.884 86.4325 56.4406 86.4325 56.4406C86.4325 56.4406 85.5729 56.5237 85.0872 56.6235C83.9317 56.8452 82.2403 57.965 81.3974 58.6856C80.0018 59.8719 78.4667 61.801 79.1645 63.5138C79.265 63.7578 79.4213 64.0682 79.4213 64.0682L79.4157 64.0793ZM87.175 66.1303C89.3505 65.9805 91.4651 65.3518 93.3656 64.2899C95.2524 63.2422 98.0268 61.2023 97.7365 58.7965C97.6962 58.438 97.5593 58.0969 97.3402 57.8091C97.1212 57.5213 96.828 57.2975 96.4917 57.1612C95.6488 56.8009 95.2134 56.8563 94.136 57.1612C93.4796 57.3331 92.8516 57.5982 92.2715 57.9484C89.6571 59.5779 87.3284 61.6207 85.3775 63.9961C84.9923 64.495 84.6072 65.0604 84.3001 65.4429C84.1103 65.6813 83.9596 65.8975 83.9764 65.9584C84.0434 66.1968 86.3153 66.1746 87.175 66.1192V66.1303ZM81.5928 70.2102C81.3224 70.6011 81.0834 71.0126 80.8782 71.4408C80.7313 71.681 80.5422 71.8931 80.32 72.0672C80.2128 72.1725 80.0852 72.2552 79.9449 72.3102C79.8047 72.3653 79.6546 72.3915 79.5038 72.3874C79.3531 72.3832 79.2047 72.3488 79.0677 72.2861C78.9307 72.2235 78.8079 72.1339 78.7068 72.0228C78.3223 71.667 78.0133 71.2386 77.7976 70.7626C77.5819 70.2867 77.464 69.7729 77.4508 69.2512C77.4849 68.8121 77.4849 68.371 77.4508 67.9319C77.3056 67.2944 76.6637 66.6403 76.3343 66.0305C75.8996 65.1644 75.6362 64.2235 75.5584 63.2589C75.4188 60.7366 76.7586 58.414 78.4946 56.6069C80.3427 54.6999 82.5658 53.1904 85.0258 52.1722C87.3759 51.1855 90.8257 50.5092 93.3991 51.4017C94.3992 51.7595 95.2934 52.3597 96.0005 53.1478C96.1009 53.2979 96.2211 53.434 96.3577 53.5525C96.5685 53.6276 96.7879 53.676 97.0108 53.6966C97.9187 53.9036 98.7702 54.3047 99.5061 54.8718C100.405 55.5591 101.028 56.5416 101.264 57.6435C101.756 59.9717 100.405 62.5271 98.8697 64.0793C96.4713 66.6498 93.5246 68.6554 90.2452 69.9496C88.5082 70.6352 86.6486 70.9615 84.7802 70.9086C84.2611 70.8643 83.7252 70.7312 83.2172 70.698C82.7724 70.6271 82.3352 70.5157 81.9109 70.3654C81.7826 70.2656 81.6207 70.1825 81.5928 70.2157V70.2102ZM84.6016 75.3821C84.7368 75.4071 84.8694 75.4442 84.9979 75.4929C86.1813 75.942 86.6726 77.0284 86.9573 78.2203C87.6327 80.9919 87.923 87.0896 88.0346 89.512C88.1128 91.3136 88.1574 93.0819 88.2356 94.8613C88.297 96.3691 88.4198 98.3702 88.1072 99.7838C87.9774 100.352 87.6391 100.852 87.1582 101.186C86.3551 101.518 85.4698 101.601 84.6183 101.425C82.8878 101.07 82.3296 99.9667 82.0784 98.2649C81.4923 94.2127 81.777 86.2581 82.1231 82.8988C82.2403 81.7901 82.6813 78.2424 83.2395 76.7513C83.4405 76.2468 83.8647 75.238 84.6016 75.3821ZM31.9613 82.1228C31.9613 82.1228 29.3879 82.3057 27.6184 82.4997C24.5897 82.8311 21.5993 83.4454 18.6868 84.3345C17.9555 84.5951 16.4539 85.2159 16.3367 85.9643C16.2195 86.7126 16.6828 87.3446 17.2243 87.9765C17.5369 88.3368 19.3009 90.0275 19.7977 90.4377C22.6772 92.7004 25.8271 94.6014 29.1758 96.0974C30.2364 96.5354 32.0004 97.1618 32.0004 97.1618C32.0004 97.1618 31.872 92.1728 31.8943 87.2725C31.8943 84.6838 31.9613 82.1228 31.9613 82.1228ZM79.1645 84.1128C79.2139 85.5183 79.1279 86.9254 78.9077 88.3146C78.7107 89.2562 78.4458 90.1825 78.115 91.0863C77.6406 92.1617 77.1772 93.0431 76.686 93.9245C75.5694 95.7411 74.2099 97.3988 72.6445 98.8525C68.2122 102.655 61.3517 104.817 55.468 105.532C51.1933 106.037 46.8668 105.912 42.6289 105.161C41.172 104.9 39.0061 104.407 39.0061 104.407C39.0061 104.407 39.0061 105.266 38.9447 105.87C38.866 106.293 38.7445 106.708 38.5818 107.106C38.4396 107.406 38.2232 107.665 37.9527 107.859C37.6823 108.053 37.3667 108.175 37.0355 108.215C36.1678 108.414 35.2607 108.36 34.4231 108.06C33.0778 107.506 32.5977 106.247 32.3632 104.806C32.1679 103.653 31.9725 101.652 31.9725 101.652C31.9725 101.652 30.9677 101.175 30.1248 100.759C27.6137 99.5178 25.2172 98.0599 22.9628 96.4023C22.3711 95.9644 19.82 93.8413 19.2562 93.3147C17.6592 91.9071 16.2854 90.2682 15.1812 88.4532C14.3439 86.9732 14.1038 85.6538 14.7402 84.0851C15.6166 81.8955 18.7929 80.2325 20.942 79.3067C22.5274 78.6083 27.4676 77.0063 29.5219 76.7125C30.4876 76.5739 31.9892 76.3023 32.0841 76.2468C32.1192 76.2231 32.1495 76.193 32.1734 76.1581C32.2237 76.0972 32.3018 73.9408 32.2851 73.137C32.2683 72.3333 32.8433 67.2334 33.061 66.1525C33.1615 65.5649 33.6192 63.3087 34.0658 62.7156C34.221 62.5404 34.4384 62.4316 34.6725 62.412C34.9066 62.3924 35.1393 62.4634 35.3218 62.6103C37.6719 64.0682 38.3864 69.1071 38.5651 71.6681C38.6655 73.2313 38.7214 75.5816 38.7214 75.5816C38.7214 75.5816 41.4176 75.504 43.0811 75.5484C44.7807 75.627 46.4736 75.8122 48.1497 76.1027C50.2933 76.4464 54.4688 77.35 56.8691 78.5584C58.8397 79.5507 60.6874 81.2247 61.2847 82.993C61.5742 83.6721 61.6914 84.4113 61.6262 85.1458C61.561 85.8803 61.3153 86.5877 60.9107 87.206C60.4467 88.0335 59.7881 88.7373 58.9911 89.2576C58.1941 89.7778 57.2822 90.099 56.3332 90.1938C55.775 90.2271 53.7431 89.9555 53.1123 89.4732C53.0023 89.377 52.9347 89.2417 52.9243 89.0965C52.9138 88.9513 52.9613 88.8078 53.0565 88.6971C53.5715 88.3752 54.1025 88.0791 54.6474 87.8102C54.9132 87.6687 55.1607 87.4956 55.3843 87.2947C55.8532 86.8845 56.2774 86.4299 56.2272 85.9033C56.1658 85.2159 55.4289 84.7946 54.7312 84.5175C51.46 83.2314 44.9232 82.156 41.7693 81.9731C40.53 81.901 38.7716 81.84 38.7716 81.84L39.1456 99.1518C39.1456 99.1518 40.597 99.429 41.7413 99.6119C42.4 99.7117 45.1856 99.9611 45.928 99.9778C51.5605 100.127 57.8516 99.6285 63.0207 97.2061C65.2668 96.2373 67.287 94.8181 68.9546 93.0375C70.0123 91.8056 70.8111 90.3759 71.3039 88.8327C71.7966 87.2895 71.9734 85.6639 71.8239 84.0518C71.5057 80.3544 68.8876 75.9697 66.7999 73.3033C61.2791 66.2467 51.8061 60.4429 43.4774 57.0448C35.256 53.5777 26.4723 51.6116 17.548 51.2409C15.2203 51.1523 10.146 51.2742 7.5838 51.9782C7.21537 52.078 6.84694 52.1999 6.50643 52.2775C6.22188 52.3491 5.94924 52.4611 5.69701 52.6101C5.6356 52.6656 5.56862 52.7376 5.56862 52.7376C5.56862 52.7376 5.7305 52.8208 5.88122 52.8873C6.15475 53.0037 7.29352 53.0758 7.88523 53.1811C8.14199 53.2155 8.38927 53.3003 8.6126 53.4307C8.83594 53.5611 9.03083 53.7344 9.18589 53.9405C9.2974 54.0769 9.35826 54.2472 9.35826 54.4228C9.35826 54.5985 9.2974 54.7687 9.18589 54.9051C8.62767 55.6035 6.39478 55.4594 5.45697 55.3375C4.51916 55.2155 3.22409 54.8718 2.97847 54.0071C2.69936 52.9871 3.16268 51.9893 3.7209 51.0636C4.77594 49.2176 6.2943 48.2531 8.51044 47.6544C11.8152 46.7776 15.2036 46.2481 18.6198 46.0746C25.3631 45.8251 31.738 46.9948 38.2692 48.9626C42.4426 50.2506 46.5201 51.8269 50.4719 53.68C53.5236 55.1842 56.4921 56.8495 59.3644 58.669C60.0845 59.1402 64.2823 62.2001 64.9466 62.7378C66.3087 63.8464 68.0894 65.4318 69.3789 66.7012C71.8685 69.1569 74.9611 72.9153 76.4795 75.8976C76.8367 76.6127 77.1214 77.3167 77.5959 78.1149C77.9742 78.9162 78.2969 79.7422 78.5616 80.5872C78.6733 81.0751 78.8407 81.7846 78.8631 81.8123C79.0134 82.5719 79.1141 83.3403 79.1645 84.1128ZM163.875 80.2824C160.721 81.003 152.42 81.391 152.42 81.391L151.376 84.6671C153.759 84.4729 156.153 84.4599 158.538 84.6283C158.538 84.6283 159.515 84.5175 159.654 85.737C159.671 86.5198 159.64 87.3029 159.56 88.0818C159.56 88.0818 159.493 88.8191 158.443 89.0075C157.394 89.196 149.512 89.4954 149.512 89.4954L148.25 93.736C148.25 93.736 147.781 94.7172 148.808 94.44C149.835 94.1628 157.957 92.655 159.024 92.8768C160.09 93.0985 161.43 94.6673 161.061 96.042C160.626 97.7494 152.47 102.916 147.502 102.555C147.502 102.555 144.895 102.722 142.684 99.2294C140.63 95.9034 143.466 89.584 143.466 89.584C143.466 89.584 142.165 86.635 143.109 85.6372C143.109 85.6372 143.667 85.1328 145.297 85.0164L147.301 80.9088C147.301 80.9088 145.023 81.064 143.667 79.401C142.405 77.8211 142.299 77.1005 143.265 76.6626C144.231 76.2247 153.787 74.4453 160.313 74.6504C160.313 74.6504 162.579 74.4342 164.55 78.3422C164.55 78.3422 165.499 79.9221 163.88 80.299L163.875 80.2824ZM139.313 96.0753C138.475 98.0321 136.265 100.116 133.518 98.8469C130.772 97.5775 126.53 88.7415 126.53 88.7415C126.53 88.7415 124.888 85.4709 124.576 85.5596C124.576 85.5596 124.219 84.9166 124.018 88.492C123.817 92.0675 124.062 98.9911 122.633 100.083C122.353 100.326 122.022 100.505 121.664 100.607C121.306 100.709 120.93 100.731 120.563 100.671C120.196 100.612 119.846 100.473 119.539 100.264C119.232 100.055 118.975 99.7811 118.787 99.4622C118.017 98.2039 117.671 95.205 118.117 89.9444C118.564 84.6838 119.848 79.0684 121.422 77.3222C122.996 75.5761 124.258 76.8455 124.771 77.3222C124.771 77.3222 126.876 79.2181 130.353 84.778L130.967 85.8091C130.967 85.8091 134.116 91.0641 134.451 91.053C134.451 91.053 134.708 91.2914 134.936 91.1195C135.266 91.0253 135.132 89.3401 135.132 89.3401C135.132 89.3401 134.479 83.6139 131.604 73.9186C131.351 73.1647 131.301 72.3584 131.459 71.5794C131.755 70.4319 132.91 70.9696 132.91 70.9696C132.91 70.9696 137.376 73.1869 139.531 80.3932C141.685 87.5995 140.239 94.1074 139.391 96.0753H139.313ZM187.32 91.757C185.294 95.277 179.561 102.639 171.946 100.903C168.997 107.711 167.032 114.897 166.107 122.251C166.107 122.251 165.845 124.036 164.355 123.415C162.875 122.899 160.447 120.46 159.95 117.09C159.42 112.655 161.407 105.161 165.471 96.5797C164.282 94.6673 163.478 91.9344 164.165 88.043C164.165 88.043 165.186 80.8367 172.493 74.3067C172.493 74.3067 173.37 73.5528 173.878 73.7856C174.386 74.0184 174.179 76.3688 173.733 77.5107C173.286 78.6526 170.021 84.2403 170.021 84.2403C170.021 84.2403 167.994 88.0208 168.564 91.0031C172.393 85.1494 181.107 73.3477 186.505 77.0728C188.319 78.3588 189.156 81.1638 189.156 84.1849C189.18 86.824 188.55 89.4284 187.32 91.7681V91.757ZM185.746 82.4942C185.746 82.4942 185.444 80.166 183.156 82.727C179.864 86.2559 177.05 90.1951 174.782 94.4455C177.785 94.1129 180.677 92.4943 181.553 91.6739C182.977 90.4156 186.293 87.0175 185.757 82.4942H185.746ZM229.287 81.9398H215.331C215.052 77.2324 214.466 72.5477 213.579 67.9152C213.534 67.6784 213.408 67.4645 213.221 67.3106C213.035 67.1567 212.8 67.0725 212.557 67.0727H209.342C209.203 67.0728 209.066 67.1031 208.941 67.1616C208.816 67.2201 208.705 67.3053 208.616 67.4112C208.528 67.517 208.464 67.6408 208.429 67.7739C208.395 67.907 208.39 68.0461 208.415 68.1813C209.325 72.7198 209.92 77.3149 210.196 81.9343H196.754C196.458 81.9343 196.174 82.0511 195.964 82.259C195.755 82.4669 195.637 82.7489 195.637 83.0429V85.9255C195.637 86.2195 195.755 86.5015 195.964 86.7094C196.174 86.9173 196.458 87.0341 196.754 87.0341H210.374C210.374 87.7437 210.374 88.3812 210.374 88.9798C210.393 92.8001 210.192 96.6182 209.771 100.416C209.756 100.561 209.771 100.709 209.816 100.848C209.862 100.988 209.936 101.116 210.034 101.225C210.133 101.334 210.253 101.422 210.388 101.482C210.522 101.542 210.668 101.574 210.815 101.574H213.802C214.081 101.575 214.351 101.472 214.558 101.286C214.765 101.099 214.893 100.842 214.918 100.565C215.326 96.717 215.521 92.8494 215.504 88.9798C215.504 88.3812 215.504 87.7437 215.504 87.0341H229.27C229.566 87.0341 229.85 86.9173 230.06 86.7094C230.269 86.5015 230.387 86.2195 230.387 85.9255V83.0429C230.381 82.7537 230.261 82.4782 230.054 82.2752C229.846 82.0722 229.567 81.9578 229.276 81.9565L229.287 81.9398Z" fill="white"/>
<path d="M0.92981 153.903L47.7478 153.909V154.945L0.92981 154.94" fill="white"/>
<path d="M177.886 155.899H171.45V162.312H168.017V155.899H161.564V152.573H168.017V146.198H171.45V152.612H177.886V155.899ZM67.2855 164.685C68.2917 164.68 69.2958 164.597 70.2888 164.435V160.211C69.4002 160.384 68.4979 160.477 67.5926 160.489C63.6404 160.489 61.1674 158.083 61.1674 154.247C61.1674 150.411 63.6404 148.005 67.5926 148.005C68.4975 148.018 69.3997 148.108 70.2888 148.277V144.053C69.2958 143.892 68.2917 143.808 67.2855 143.803C60.8046 143.803 56.3835 148.033 56.3835 154.247C56.3835 160.461 60.8046 164.685 67.2855 164.685ZM82.7762 164.824C88.9166 164.824 93.4829 160.461 93.4829 154.247C93.4829 148.033 88.8943 143.665 82.7762 143.665C76.6581 143.665 72.0974 148.033 72.0974 154.247C72.0974 160.461 76.6581 164.824 82.7762 164.824ZM82.7762 160.461C79.4269 160.461 76.8814 157.972 76.8814 154.247C76.8814 150.522 79.4101 148.033 82.7762 148.033C86.1423 148.033 88.6989 150.516 88.6989 154.247C88.6989 157.977 86.1423 160.461 82.7762 160.461ZM106.478 154.081L100.494 144.103H95.9614V164.43H100.293V151.869L105.021 159.879H107.812L112.485 151.924V164.408H116.822V144.08H112.356L106.478 154.081ZM131.453 153.776C132.225 153.373 132.864 152.758 133.293 152.004C133.721 151.249 133.922 150.388 133.87 149.524C133.87 146.126 131.202 144.08 126.837 144.08H120.104V164.408H127.423C131.732 164.408 134.568 162.063 134.568 158.443C134.568 156.176 133.457 154.513 131.453 153.776ZM127.227 148.116C128.589 148.116 129.393 148.859 129.393 150.073C129.393 151.287 128.589 152.035 127.227 152.035H124.721V148.116H127.227ZM124.721 160.378V156.015H127.473C129.008 156.015 129.896 156.813 129.896 158.194C129.896 159.574 129.008 160.378 127.473 160.378H124.721ZM146.698 164.812C152.839 164.812 157.405 160.45 157.405 154.236C157.405 148.022 152.816 143.654 146.698 143.654C140.58 143.654 136.019 148.033 136.019 154.247C136.019 160.461 140.574 164.824 146.698 164.824V164.812ZM146.698 160.45C143.349 160.45 140.798 157.961 140.798 154.236C140.798 150.511 143.332 148.022 146.698 148.022C150.064 148.022 152.621 150.505 152.621 154.236C152.621 157.966 150.059 160.461 146.698 160.461V160.45Z" fill="white"/>
<path d="M233.15 154.585L186.332 154.579V153.548H233.15" fill="white"/>
<path d="M211.675 60.4484C205.091 44.3788 194.222 30.3949 180.235 19.9995C166.248 9.60419 149.673 3.19059 132.291 1.44809C114.909 -0.294414 97.3778 2.70007 81.581 10.1097C65.7843 17.5193 52.3197 29.0638 42.6345 43.5024C42.5381 43.645 42.4763 43.8078 42.454 43.978C42.4317 44.1483 42.4496 44.3214 42.5061 44.4836C42.5601 44.6488 42.6524 44.799 42.7755 44.9222C42.8986 45.0455 43.0492 45.1383 43.2151 45.1932L45.7159 46.0302C45.8605 46.0753 46.0109 46.0996 46.1625 46.1023C46.3914 46.103 46.6169 46.0472 46.8186 45.9397C47.0203 45.8323 47.1919 45.6767 47.318 45.487C55.659 33.2797 66.883 23.2861 80.0097 16.3791C93.1364 9.47204 107.766 5.86168 122.622 5.86334C140.519 5.86678 158.018 11.1057 172.934 20.9258C187.851 30.7459 199.523 44.7121 206.495 61.0803C206.596 61.3161 206.765 61.5171 206.98 61.6581C207.195 61.7991 207.448 61.8738 207.706 61.873H210.693C210.863 61.8713 211.03 61.8285 211.18 61.7484C211.33 61.6682 211.458 61.5531 211.553 61.4129C211.648 61.2727 211.707 61.1116 211.725 60.9436C211.744 60.7755 211.721 60.6056 211.658 60.4484H211.675Z" fill="url(#paint1_linear_1790_2)"/>
</g>
<defs>
<linearGradient id="paint0_linear_1790_2" x1="75.2402" y1="221.77" x2="140.452" y2="221.77" gradientUnits="userSpaceOnUse">
<stop stop-color="#ED1F61"/>
<stop offset="0.28" stop-color="#ED1F61"/>
<stop offset="0.78" stop-color="#F26E21"/>
<stop offset="1" stop-color="#F26E21"/>
</linearGradient>
<linearGradient id="paint1_linear_1790_2" x1="42.4447" y1="31.418" x2="211.748" y2="31.418" gradientUnits="userSpaceOnUse">
<stop stop-color="#58616E" stop-opacity="0"/>
<stop offset="0.28" stop-color="#2C66B1"/>
<stop offset="0.52" stop-color="#0071FF"/>
<stop offset="0.77" stop-color="#00EBF8"/>
<stop offset="1" stop-color="white"/>
</linearGradient>
<clipPath id="clip0_1790_2">
<rect width="232.22" height="251.6" fill="white" transform="translate(0.92981 0.963135)"/>
</clipPath>
</defs>
</svg>
