<svg width="127" height="50" viewBox="0 0 127 50" fill="none" xmlns="http://www.w3.org/2000/svg">
<path fill-rule="evenodd" clip-rule="evenodd" d="M100.478 34.1788H108.45V9.26221H100.478V34.1788Z" fill="white"/>
<path fill-rule="evenodd" clip-rule="evenodd" d="M100.478 49.6628H108.45V42.5342H100.478V49.6628Z" fill="white"/>
<path fill-rule="evenodd" clip-rule="evenodd" d="M118.131 16.8581H126.485V9.26221H118.131V16.8581Z" fill="white"/>
<path fill-rule="evenodd" clip-rule="evenodd" d="M18.7002 7.59739H26.6087V0H18.7002V7.59739Z" fill="white"/>
<path fill-rule="evenodd" clip-rule="evenodd" d="M0.552734 40.8693H8.62714V33.666H0.552734V40.8693Z" fill="white"/>
<path fill-rule="evenodd" clip-rule="evenodd" d="M18.7002 40.869H26.6087V16.4155H18.7002V40.869Z" fill="white"/>
<path fill-rule="evenodd" clip-rule="evenodd" d="M60.5673 9.2627H33.4186V16.8585H49.7911L32.9697 33.4694V41.0658H60.5673V33.4694H44.2673L60.5673 16.8585V9.2627Z" fill="white"/>
<path fill-rule="evenodd" clip-rule="evenodd" d="M93.7666 9.2627H66.6185V16.8585H82.9914L66.1748 33.4694V41.0658H93.7666V33.4694H77.4634L93.7666 16.8585V9.2627Z" fill="white"/>
</svg>
